<svg xmlns="http://www.w3.org/2000/svg" viewBox="0 0 720 480" role="img" aria-labelledby="title desc"><title id="title">开源项目起步包 · 演示插画</title><desc id="desc">原创几何插画，仅用于本地商城演示。</desc><rect width="720" height="480" fill="#dfe6e8"/><circle cx="490" cy="208" r="164" fill="#68838b" opacity=".10"/><path d="M0 409c174-44 273 7 420-27s208-13 300 3v95H0Z" fill="#fffdf7" opacity=".35"/><g fill="#68838b" opacity=".42"><circle cx="123" cy="151" r="8"/><circle cx="570" cy="326" r="6"/><circle cx="556" cy="96" r="4"/></g><path d="M130 304v24m-12-12h24M575 182v16m-8-8h16" stroke="#68838b" stroke-width="3" stroke-linecap="round"/><g fill="none" transform="translate(0 -8) rotate(0 355 230)"><rect x="169" y="108" width="370" height="244" rx="18" fill="#fffdf7" stroke="#3f5863" stroke-width="7" stroke-linecap="round" stroke-linejoin="round"/><path d="M169 151h370" stroke="#3f5863" stroke-width="7" stroke-linecap="round" stroke-linejoin="round"/><circle cx="195" cy="130" r="5" fill="#68838b"/><circle cx="214" cy="130" r="5" fill="#68838b"/><circle cx="233" cy="130" r="5" fill="#68838b"/><path d="m272 210-40 40 40 40m165-80 40 40-40 40m-66-89-31 97" stroke="#68838b" stroke-width="10" fill="none" stroke-linecap="round" stroke-linejoin="round"/><path d="M310 352v30m-48 0h96" stroke="#3f5863" stroke-width="7" stroke-linecap="round" stroke-linejoin="round"/></g><text x="39" y="44" fill="#3f5863" font-family="Arial,sans-serif" font-size="12" letter-spacing="3">DEMO SERIES / 32</text><text x="39" y="449" fill="#3f5863" font-family="Arial,sans-serif" font-size="12" letter-spacing="3">BUILD SOMETHING GOOD</text><circle cx="650" cy="435" r="19" fill="#fffdf7" opacity=".65"/><path d="m642 442 15-15m-14 0h14v14" stroke="#3f5863" stroke-width="2" fill="none"/></svg>