<svg xmlns="http://www.w3.org/2000/svg" viewBox="0 0 720 480" role="img" aria-labelledby="title desc"><title id="title">声音采集笔记包 · 演示插画</title><desc id="desc">原创几何插画，仅用于本地商城演示。</desc><rect width="720" height="480" fill="#e4e2ed"/><circle cx="490" cy="208" r="164" fill="#85819f" opacity=".10"/><path d="M0 409c174-44 273 7 420-27s208-13 300 3v95H0Z" fill="#fffdf7" opacity=".35"/><g fill="#85819f" opacity=".42"><circle cx="123" cy="151" r="8"/><circle cx="570" cy="326" r="6"/><circle cx="556" cy="96" r="4"/></g><path d="M130 304v24m-12-12h24M575 182v16m-8-8h16" stroke="#85819f" stroke-width="3" stroke-linecap="round"/><g fill="none" transform="translate(9 -8) rotate(4 355 230)"><path d="M240 253v-25a114 114 0 0 1 228 0v25" stroke="#524e6b" stroke-width="7" stroke-linecap="round" stroke-linejoin="round"/><rect x="214" y="217" width="73" height="119" rx="27" fill="#fffdf7" stroke="#524e6b" stroke-width="7" stroke-linecap="round" stroke-linejoin="round"/><rect x="423" y="217" width="73" height="119" rx="27" fill="#fffdf7" stroke="#524e6b" stroke-width="7" stroke-linecap="round" stroke-linejoin="round"/><path d="M330 214v98m25-127v155m25-126v98" stroke="#85819f" stroke-width="9" stroke-linecap="round"/><path d="M469 329c-4 38-28 48-60 48h-43" stroke="#524e6b" stroke-width="7" stroke-linecap="round" stroke-linejoin="round"/><rect x="340" y="365" width="53" height="23" rx="11" fill="#85819f"/></g><text x="39" y="44" fill="#524e6b" font-family="Arial,sans-serif" font-size="12" letter-spacing="3">DEMO SERIES / 48</text><text x="39" y="449" fill="#524e6b" font-family="Arial,sans-serif" font-size="12" letter-spacing="3">LISTEN TO THE MOMENT</text><circle cx="650" cy="435" r="19" fill="#fffdf7" opacity=".65"/><path d="m642 442 15-15m-14 0h14v14" stroke="#524e6b" stroke-width="2" fill="none"/></svg>